PathFileType	4	(X/Y/Z)	./trials/Ivanov/data/jump_js_1.trc
DataRate	CameraRate	NumFrames	NumMarkers	Units	OrigDataRate	OrigDataStartFrame	OrigNumFrames
400	400	4	71	mm	400	250	285
Frame#	Time	r_illiac			r_troch			r_asis			l_illiac			l_troch			l_asis			r_psis			sacrum			l_psis			r_thigh1			r_thigh2			r_thigh3			r_thigh4			rl_knee			rm_knee			r_shank1			r_shank2			r_shank3			r_shank4			r_heel			rl_ankle			rm_ankle			r_metatarsal5			r_metatarsal1			l_thigh1			l_thigh2			l_thigh3			l_thigh4			ll_knee			lm_knee			l_shank1			l_shank2			l_shank3			l_shank4			l_heel			ll_ankle			lm_ankle			l_metatarsal5			l_metatarsal1			back_down			neck			back_right			back_left			head_up			head_front			head_left			head_right			r_shoulder			r_humerus1			r_humerus2			r_humerus3			rl_elbow			rm_elbow			r_radius1			r_radius2			r_radius3			rl_wrist			rm_wrist			r_hand			l_shoulder			l_humerus1			l_humerus2			l_humerus3			ll_elbow			lm_elbow			l_radius1			l_radius2			l_radius3			ll_wrist			lm_wrist			l_hand		
		X1	Y1	Z1	X2	Y2	Z2	X3	Y3	Z3	X4	Y4	Z4	X5	Y5	Z5	X6	Y6	Z6	X7	Y7	Z7	X8	Y8	Z8	X9	Y9	Z9	X10	Y10	Z10	X11	Y11	Z11	X12	Y12	Z12	X13	Y13	Z13	X14	Y14	Z14	X15	Y15	Z15	X16	Y16	Z16	X17	Y17	Z17	X18	Y18	Z18	X19	Y19	Z19	X20	Y20	Z20	X21	Y21	Z21	X22	Y22	Z22	X23	Y23	Z23	X24	Y24	Z24	X25	Y25	Z25	X26	Y26	Z26	X27	Y27	Z27	X28	Y28	Z28	X29	Y29	Z29	X30	Y30	Z30	X31	Y31	Z31	X32	Y32	Z32	X33	Y33	Z33	X34	Y34	Z34	X35	Y35	Z35	X36	Y36	Z36	X37	Y37	Z37	X38	Y38	Z38	X39	Y39	Z39	X40	Y40	Z40	X41	Y41	Z41	X42	Y42	Z42	X43	Y43	Z43	X44	Y44	Z44	X45	Y45	Z45	X46	Y46	Z46	X47	Y47	Z47	X48	Y48	Z48	X49	Y49	Z49	X50	Y50	Z50	X51	Y51	Z51	X52	Y52	Z52	X53	Y53	Z53	X54	Y54	Z54	X55	Y55	Z55	X56	Y56	Z56	X57	Y57	Z57	X58	Y58	Z58	X59	Y59	Z59	X60	Y60	Z60	X61	Y61	Z61	X62	Y62	Z62	X63	Y63	Z63	X64	Y64	Z64	X65	Y65	Z65	X66	Y66	Z66	X67	Y67	Z67	X68	Y68	Z68	X69	Y69	Z69	X70	Y70	Z70	X71	Y71	Z71
250	0.6225	-327.262	1469.906	572.983	-357.452	1292.974	599.311	-264.532	1405.821	535.560	-339.924	1485.966	232.729	-391.010	1310.006	218.926	-275.295	1407.462	261.220	-437.628	1472.479	457.237	-431.045	1501.759	409.639	-444.290	1474.364	356.739	-336.871	1173.814	609.534	-261.565	1187.502	591.269	-251.106	1061.157	596.912	-309.471	1054.299	611.504	-294.823	915.653	604.670	-290.786	900.086	470.106	-366.889	794.225	624.200	-294.442	797.087	614.914	-294.634	685.575	614.455	-356.888	686.425	626.790	-424.116	464.954	557.702	-348.815	479.992	613.260	-306.531	475.517	515.472	-250.937	337.102	632.676	-217.828	336.510	548.512	-339.918	1203.057	192.187	-270.519	1211.986	207.286	-252.943	1089.981	203.754	-319.992	1080.036	189.937	-295.950	915.572	190.430	-301.242	873.188	327.178	-369.429	807.152	176.504	-299.382	805.613	177.167	-302.201	701.021	170.982	-361.939	696.830	171.077	-405.975	486.175	224.965	-331.263	481.793	174.692	-298.698	473.439	279.246	-247.417	328.694	162.128	-221.856	325.232	256.937	-406.081	1626.941	415.504	-316.749	1943.028	399.364	-378.129	1810.807	512.890	-391.996	1812.261	302.916	-149.419	2200.655	365.585	-25.439	2113.735	358.800	-135.761	2102.635	268.386	-131.595	2117.014	459.598	-185.672	1927.396	570.866	-189.153	1754.738	657.969	-252.969	1843.986	730.822	-249.774	1739.700	742.629	-287.604	1656.820	795.835	-386.855	1681.277	764.164	-262.918	1580.736	695.367	-308.702	1542.710	801.994	-294.351	1489.317	714.991	-346.265	1450.810	627.298	-315.689	1403.853	704.287	-288.197	1404.412	625.861	-256.682	1961.114	223.190	-219.040	1795.746	139.918	-311.310	1868.712	80.669	-287.873	1771.360	67.913	-337.409	1671.607	2.502	-415.004	1695.786	54.259	-302.221	1577.581	123.574	-330.657	1521.825	8.332	-325.468	1478.586	100.414	-363.702	1451.667	171.798	-334.701	1417.756	92.216	-314.525	1400.374	157.363
251	0.6250	-326.759	1472.350	573.108	-357.629	1295.133	599.425	-264.251	1407.953	535.606	-339.068	1488.115	232.579	-391.026	1312.238	218.992	-275.072	1409.577	261.482	-437.264	1474.730	457.359	-430.792	1504.049	409.806	-444.011	1476.649	356.785	-337.182	1175.982	609.649	-261.689	1189.384	591.237	-251.630	1063.113	596.918	-309.929	1056.329	611.589	-295.546	917.564	604.742	-291.631	902.162	470.107	-367.710	795.826	623.928	-295.308	799.079	614.993	-294.977	687.580	614.494	-357.354	688.054	626.461	-423.205	466.396	556.580	-348.521	481.749	612.931	-305.340	477.528	515.312	-250.062	339.226	632.760	-216.204	338.954	549.003	-339.583	1205.235	192.177	-270.318	1213.815	207.928	-253.141	1091.751	204.610	-320.011	1082.168	190.056	-296.508	917.339	190.704	-302.234	874.895	327.392	-370.178	809.001	176.815	-300.053	807.775	177.139	-303.018	703.005	171.133	-362.365	698.847	171.267	-405.831	487.865	224.670	-331.078	483.839	174.423	-298.556	475.284	278.933	-246.681	331.395	161.166	-221.209	327.302	255.916	-405.977	1628.868	415.594	-317.173	1944.970	399.339	-378.498	1812.532	512.889	-392.212	1814.077	302.897	-149.618	2202.703	365.340	-25.659	2115.898	358.590	-136.023	2104.732	268.159	-131.840	2119.083	459.403	-186.579	1929.743	570.927	-189.559	1757.300	658.592	-254.516	1846.415	730.591	-250.648	1742.147	742.842	-288.134	1659.145	795.926	-387.405	1683.245	763.918	-263.245	1582.935	695.545	-309.049	1544.859	802.179	-294.555	1491.421	715.321	-346.414	1452.632	627.659	-315.500	1405.815	704.671	-288.180	1406.339	626.282	-257.578	1963.405	223.425	-219.237	1798.039	139.930	-311.893	1870.916	80.858	-288.151	1773.507	68.010	-337.464	1673.748	2.519	-415.083	1697.881	54.362	-302.211	1579.819	123.808	-330.206	1523.980	8.446	-325.177	1480.823	100.613	-363.455	1453.740	171.939	-334.347	1419.883	92.427	-314.220	1402.581	157.618
252	0.6275	-326.251	1474.783	573.294	-357.799	1297.224	599.426	-264.011	1410.207	535.670	-338.235	1490.254	232.431	-390.892	1314.315	219.159	-274.877	1411.509	261.805	-437.114	1476.930	457.592	-430.595	1506.198	410.006	-443.748	1478.869	356.826	-337.256	1178.100	609.823	-261.895	1191.335	591.244	-251.991	1064.980	596.937	-310.372	1058.353	611.743	-296.335	919.371	604.825	-292.349	904.073	470.089	-368.572	797.573	623.676	-296.091	800.963	615.164	-295.272	689.500	614.506	-357.701	689.707	626.169	-422.231	467.787	555.604	-347.896	483.349	612.293	-304.242	479.407	515.078	-249.225	341.323	632.761	-214.809	341.198	549.145	-339.344	1207.194	192.213	-270.257	1215.744	208.647	-253.282	1093.620	205.376	-319.982	1084.112	190.120	-297.060	919.229	190.980	-303.030	876.754	327.615	-370.916	810.903	177.103	-300.684	809.680	177.103	-303.462	704.949	171.000	-362.813	700.712	171.478	-405.712	489.597	224.385	-330.968	486.092	174.051	-298.388	477.148	278.606	-246.014	333.894	160.253	-220.616	329.403	255.004	-405.934	1630.610	415.675	-317.572	1946.792	399.320	-378.791	1814.060	512.824	-392.528	1815.784	302.896	-149.845	2204.612	365.143	-26.002	2117.855	358.332	-136.294	2106.850	267.926	-132.022	2121.259	459.173	-187.337	1931.647	571.165	-189.898	1759.962	659.214	-256.044	1848.742	730.290	-251.505	1744.685	743.104	-288.719	1661.313	795.942	-387.941	1685.182	763.654	-263.472	1584.888	695.690	-309.371	1547.186	802.380	-294.777	1493.497	715.640	-346.600	1454.434	627.996	-315.582	1407.836	705.155	-288.168	1408.388	626.694	-258.376	1965.570	223.670	-219.454	1800.375	139.938	-312.283	1872.987	81.000	-288.382	1775.761	68.093	-337.465	1675.836	2.562	-415.140	1700.004	54.399	-302.279	1582.093	124.048	-329.842	1526.056	8.660	-324.892	1483.005	100.851	-363.166	1455.818	172.115	-333.884	1422.040	92.646	-313.808	1404.583	157.901
253	0.6300	-325.795	1477.007	573.403	-358.214	1299.636	599.276	-263.723	1412.240	535.704	-336.715	1492.392	232.359	-390.760	1316.361	219.290	-274.689	1413.538	262.129	-437.452	1479.358	457.797	-430.431	1508.366	410.217	-443.509	1481.107	356.932	-337.494	1180.088	610.042	-262.091	1193.147	591.300	-252.496	1066.825	597.018	-310.767	1060.327	611.907	-297.182	921.167	604.953	-292.986	905.895	470.132	-369.274	799.042	623.453	-296.838	802.846	615.232	-295.694	691.359	614.512	-358.112	691.293	625.878	-421.408	469.466	554.594	-347.385	484.917	611.847	-303.096	481.426	514.899	-248.402	343.180	632.585	-213.490	343.438	549.222	-339.179	1209.241	192.262	-270.153	1217.618	209.294	-253.445	1095.451	206.081	-320.009	1086.184	190.139	-297.509	921.010	191.173	-303.489	878.535	327.788	-371.436	812.619	177.321	-301.247	811.698	177.023	-303.931	706.900	170.989	-363.565	702.419	171.510	-405.628	491.267	224.072	-330.820	488.001	173.759	-298.287	478.948	278.315	-245.450	336.317	159.453	-220.146	331.556	254.215	-405.795	1632.395	415.799	-317.995	1948.543	399.280	-379.120	1815.574	512.809	-392.805	1817.427	302.844	-150.135	2206.684	364.972	-26.221	2119.935	358.140	-136.590	2108.793	267.735	-132.118	2123.092	459.003	-188.240	1933.838	571.165	-190.245	1762.557	659.843	-257.636	1851.215	730.011	-252.360	1747.158	743.303	-289.256	1663.615	795.999	-388.484	1687.043	763.296	-263.769	1587.072	695.882	-309.715	1549.304	802.532	-294.964	1495.458	715.910	-346.759	1456.349	628.336	-315.592	1409.817	705.568	-288.107	1410.355	627.193	-259.132	1967.510	223.902	-219.667	1802.556	139.999	-312.666	1875.020	81.164	-288.550	1777.796	68.173	-337.385	1677.869	2.558	-415.179	1702.000	54.331	-302.303	1584.288	124.281	-329.492	1528.192	8.852	-324.604	1485.118	101.070	-362.805	1458.020	172.324	-333.391	1424.114	92.886	-313.143	1406.929	158.248
